<?xml version="1.0" encoding="utf-8"?>
<!-- Generator: Adobe Illustrator 19.2.0, SVG Export Plug-In . SVG Version: 6.00 Build 0)  -->
<svg version="1.1" xmlns="http://www.w3.org/2000/svg" xmlns:xlink="http://www.w3.org/1999/xlink" x="0px" y="0px"
	 viewBox="0 0 1763.9 1109.6" style="enable-background:new 0 0 1763.9 1109.6;" xml:space="preserve">
<style type="text/css">
	.st0{fill:#303030;}
	.st1{opacity:0.95;fill:#F6F8F7;enable-background:new    ;}
	.st2{fill:none;stroke:#FFC107;stroke-miterlimit:10;}
	.st3{fill:#F6F8F7;}
	.st4{fill:#FFC107;}
	.st5{font-family:'Gotham-Book';}
	.st6{font-size:18px;}
	.st7{fill:none;}
	.st8{font-size:26px;}
	.st9{opacity:0.95;fill:none;stroke:#FFC107;stroke-miterlimit:10;enable-background:new    ;}
	.st10{fill:none;stroke:#FFA000;stroke-miterlimit:10;}
</style>
<g id="Calque_2">
	<rect x="1" y="0.1" class="st0" width="1762.9" height="1109.5"/>
</g>
<g id="Calque_1">
	<rect x="403" y="60.2" class="st0" width="35.5" height="35.5"/>
	<rect x="113.4" y="938.6" class="st1" width="200" height="45"/>
	<rect x="113.8" y="993.6" class="st1" width="200" height="45"/>
	<rect x="113.4" y="678.6" class="st1" width="200" height="45"/>
	<rect x="113.4" y="733.6" class="st1" width="200" height="45"/>
	<rect x="113.4" y="808.6" class="st1" width="200" height="45"/>
	<rect x="113.1" y="863.6" class="st1" width="200" height="45"/>
	<rect x="113.4" y="548.6" class="st1" width="200" height="45"/>
	<rect x="113.4" y="603.6" class="st1" width="200" height="45"/>
	<rect x="113.4" y="288.6" class="st1" width="200" height="45"/>
	<rect x="113.4" y="343.6" class="st1" width="200" height="45"/>
	<rect x="113.4" y="418.6" class="st1" width="200" height="45"/>
	<rect x="113.4" y="473.6" class="st1" width="200" height="45"/>
	<rect x="113.4" y="213.6" class="st1" width="200" height="45"/>
	<polyline class="st2" points="723.4,142.6 723.4,77.6 653.4,77.6 	"/>
	<polyline class="st2" points="993.4,402.6 1063.4,402.6 1063.4,272.6 	"/>
	<polyline class="st2" points="1403.4,533.6 1403.4,272.6 1333.4,272.6 	"/>
	<rect x="114.2" y="28.6" class="st1" width="200" height="45"/>
	<rect x="453.4" y="54.9" class="st1" width="200" height="45"/>
	<rect x="793.4" y="120.1" class="st3" width="200" height="45"/>
	<rect x="1133.4" y="250.1" class="st1" width="200" height="45"/>
	<rect x="1463" y="511.1" class="st4" width="0" height="45"/>
	<rect x="113.4" y="83.6" class="st1" width="200" height="45"/>
	<line class="st2" x1="393.3" y1="77.6" x2="383.4" y2="77.6"/>
	<line class="st2" x1="393.3" y1="208.6" x2="383.4" y2="208.6"/>
	<polyline class="st2" points="383.4,208.6 383.4,181.1 313.4,181.1 	"/>
	<polyline class="st2" points="313.4,236.1 383.4,236.1 383.4,208.6 	"/>
	<polyline class="st2" points="383.4,337.6 383.4,310.1 313.4,310.1 	"/>
	<polyline class="st2" points="313.4,365.1 383.4,365.1 383.4,337.6 	"/>
	<polyline class="st2" points="383.4,468.6 383.4,441.1 313.4,441.1 	"/>
	<polyline class="st2" points="313.4,496.1 383.4,496.1 383.4,468.6 	"/>
	<polyline class="st2" points="383.4,597.5 383.4,570 313.4,570 	"/>
	<polyline class="st2" points="313.4,625 383.4,625 383.4,597.5 	"/>
	<polyline class="st2" points="383.4,727.5 383.4,700 313.4,700 	"/>
	<polyline class="st2" points="313.4,755 383.4,755 383.4,727.5 	"/>
	<polyline class="st2" points="383.4,858.6 383.4,831.1 313.4,831.1 	"/>
	<polyline class="st2" points="313.4,886.1 383.4,886.1 383.4,858.6 	"/>
	<polyline class="st2" points="383.4,987.6 383.4,960.1 313.4,960.1 	"/>
	<polyline class="st2" points="313.4,1015.1 383.4,1015.1 383.4,987.6 	"/>
	<polyline class="st2" points="383.4,77.6 383.4,50.1 313.4,50.1 	"/>
	<polyline class="st2" points="313.4,105.1 383.4,105.1 383.4,77.6 	"/>
	<line class="st2" x1="734.2" y1="142.6" x2="723.4" y2="142.6"/>
	<line class="st2" x1="734.2" y1="402.6" x2="723.4" y2="402.6"/>
	<line class="st2" x1="1071.5" y1="272.6" x2="1063.4" y2="272.6"/>
	<line class="st2" x1="1463" y1="533.6" x2="1403.4" y2="533.6"/>
	<rect x="114.2" y="158.6" class="st1" width="200" height="45"/>
	<rect x="453.4" y="55.1" class="st4" width="0" height="45"/>
	<rect x="113.1" y="213.6" class="st4" width="0" height="45"/>
	<rect x="113.1" y="158.6" class="st4" width="0.2" height="45"/>
	<rect x="113.1" y="343.6" class="st4" width="0.1" height="45"/>
	<rect x="113.1" y="288.6" class="st4" width="0.1" height="45"/>
	<rect x="113.1" y="473.6" class="st4" width="0.1" height="45"/>
	<rect x="113.1" y="418.6" class="st4" width="0.1" height="45"/>
	<rect x="113.1" y="603.6" class="st4" width="0.1" height="45"/>
	<rect x="113.1" y="548.6" class="st4" width="0.1" height="45"/>
	<rect x="113.1" y="733.6" class="st4" width="0.1" height="45"/>
	<rect x="113.1" y="678.6" class="st4" width="0.2" height="45"/>
	<rect x="113.1" y="863.6" class="st4" width="0.1" height="45"/>
	<rect x="113.1" y="808.6" class="st4" width="0.2" height="45"/>
	<rect x="113.1" y="993.6" class="st4" width="0.1" height="45"/>
	<rect x="113.1" y="938.6" class="st4" width="0.1" height="45"/>
	<rect x="113.1" y="83.6" class="st4" width="0.1" height="45"/>
	<text transform="matrix(1 0 0 1 122.6112 112.243)" class="st5 st6">Ava</text>
	<rect x="113.1" y="28.6" class="st4" width="0.1" height="45"/>
	<text transform="matrix(1 0 0 1 122.6111 57.0994)" class="st5 st6">Wall-E</text>
	<g id="Calque_4">
	</g>
	<line class="st2" x1="393.3" y1="337.6" x2="383.4" y2="337.6"/>
	<line class="st2" x1="393.3" y1="467.6" x2="383.4" y2="467.6"/>
	<line class="st2" x1="393.3" y1="597.6" x2="383.4" y2="597.6"/>
	<line class="st2" x1="393.3" y1="727.6" x2="383.4" y2="727.6"/>
	<line class="st2" x1="393.3" y1="858.6" x2="383.4" y2="858.6"/>
	<line class="st2" x1="393.3" y1="988.6" x2="383.4" y2="988.6"/>
	<rect x="453.4" y="185.1" class="st3" width="200" height="45"/>
	<line class="st2" x1="734.2" y1="662.6" x2="723.4" y2="662.6"/>
	<line class="st2" x1="734.2" y1="922.6" x2="723.4" y2="922.6"/>
	<rect x="453.4" y="315.1" class="st1" width="200" height="45"/>
	<rect x="453.4" y="445.1" class="st3" width="200" height="45"/>
	<rect x="453.4" y="575" class="st1" width="200" height="45"/>
	<rect x="453.4" y="705.1" class="st1" width="200" height="45"/>
	<rect x="453.4" y="835" class="st3" width="200" height="45"/>
	<rect x="453.4" y="966" class="st1" width="200" height="45"/>
	<rect x="793.4" y="380.1" class="st3" width="200" height="45"/>
	<rect x="793.4" y="642.1" class="st1" width="200" height="45"/>
	<rect x="793.4" y="902.1" class="st1" width="200" height="45"/>
	<rect x="1133.4" y="772.1" class="st1" width="200" height="45"/>
	<line class="st2" x1="1071.5" y1="794.6" x2="1063.4" y2="794.6"/>
	<rect x="113.4" y="213.6" class="st7" width="40" height="45"/>
	<rect x="113.4" y="158.6" class="st7" width="40" height="45"/>
	<rect x="113.4" y="343.6" class="st7" width="40" height="45"/>
	<rect x="113.4" y="288.6" class="st7" width="40" height="45"/>
	<rect x="113.4" y="473.6" class="st7" width="40" height="45"/>
	<rect x="113.4" y="418.6" class="st7" width="40" height="45"/>
	<rect x="113.4" y="548.6" class="st7" width="40" height="45"/>
	<rect x="113.4" y="733.6" class="st7" width="40" height="45"/>
	<rect x="113.4" y="808.6" class="st7" width="40" height="45"/>
	<rect x="113.4" y="863.6" class="st7" width="40" height="45"/>
	<rect x="113.4" y="938.6" class="st7" width="40" height="45"/>
	<rect x="113.4" y="993.6" class="st7" width="40" height="45"/>
	<rect x="113.4" y="678.6" class="st7" width="40" height="45"/>
	<text transform="matrix(1 0 0 1 122.6111 244.3543)" class="st5 st6">Chappie</text>
	<text transform="matrix(1 0 0 1 122.6111 189.3543)" class="st5 st6">Ultron</text>
	<text transform="matrix(1 0 0 1 122.611 374.3543)" class="st5 st6">The Sentinels</text>
	<rect x="153.4" y="288.6" class="st7" width="160" height="45"/>
	<text transform="matrix(1 0 0 1 122.6111 319.3543)" class="st5 st6">Case</text>
	<text transform="matrix(1 0 0 1 122.611 504.3538)" class="st5 st6">Bender</text>
	<rect x="153.4" y="418.6" class="st7" width="160" height="45"/>
	<text transform="matrix(1 0 0 1 122.6111 449.3538)" class="st5 st6">BB-8</text>
	<rect x="153.4" y="603.6" class="st7" width="160" height="45"/>
	<text transform="matrix(1 0 0 1 122.6111 634.3541)" class="st5 st6">Sonny</text>
	<rect x="153.4" y="548.6" class="st7" width="160" height="45"/>
	<text transform="matrix(1 0 0 1 122.6111 579.3541)" class="st5 st6">Ash</text>
	<rect x="153.4" y="733.6" class="st7" width="160" height="45"/>
	<text transform="matrix(1 0 0 1 122.6111 764.3541)" class="st5 st6">Zurg</text>
	<rect x="153.4" y="678.6" class="st7" width="160" height="45"/>
	<text transform="matrix(1 0 0 1 122.6111 709.3541)" class="st5 st6">The Terminator</text>
	<rect x="153.4" y="863.6" class="st7" width="160" height="45"/>
	<text transform="matrix(1 0 0 1 122.6111 894.3541)" class="st5 st6">Optimus Prime</text>
	<rect x="153.4" y="808.6" class="st7" width="160" height="45"/>
	<text transform="matrix(1 0 0 1 122.611 839.3541)" class="st5 st6">Rick Deckard</text>
	<rect x="153.4" y="993.6" class="st7" width="160" height="45"/>
	<text transform="matrix(1 0 0 1 122.6111 1024.3544)" class="st5 st6">R2-D2</text>
	<rect x="153.4" y="938.6" class="st7" width="160" height="45"/>
	<text transform="matrix(1 0 0 1 122.6113 969.3541)" class="st5 st6">Robocop</text>
	<rect x="493.4" y="705" class="st7" width="160" height="45"/>
	<rect x="493.4" y="835.1" class="st7" width="160" height="45"/>
	<rect x="493.4" y="965.1" class="st7" width="160" height="45"/>
	<rect x="1173.4" y="250.1" class="st7" width="160" height="45"/>
	<rect x="1513.4" y="511.1" class="st7" width="160" height="45"/>
	<rect x="1173.4" y="772.1" class="st7" width="160" height="45"/>
	<rect x="833.4" y="380.1" class="st7" width="160" height="45"/>
	<rect x="833.4" y="642.1" class="st7" width="160" height="45"/>
	<rect x="833.4" y="902.1" class="st7" width="160" height="45"/>
	<text transform="matrix(1 0 0 1 49.2906 59.0999)" class="st4 st5 st8">0%</text>
	<text transform="matrix(1 0 0 1 403.1238 86.0775)" class="st4 st5 st8">-%</text>
	<rect x="743.9" y="124.8" class="st0" width="35.5" height="35.5"/>
	<text transform="matrix(1 0 0 1 744.0237 150.7474)" class="st4 st5 st8">-%</text>
	<rect x="1081.7" y="254.8" class="st0" width="35.5" height="35.5"/>
	<text transform="matrix(1 0 0 1 1081.7737 280.7474)" class="st4 st5 st8">-%</text>
	<rect x="1081.7" y="777.3" class="st0" width="35.5" height="35.5"/>
	<text transform="matrix(1 0 0 1 1081.8237 803.2474)" class="st4 st5 st8">-%</text>
	<rect x="743.9" y="386.5" class="st0" width="35.5" height="35.5"/>
	<text transform="matrix(1 0 0 1 744.0237 412.3992)" class="st4 st5 st8">-%</text>
	<rect x="744.1" y="644.7" class="st0" width="35.5" height="35.5"/>
	<text transform="matrix(1 0 0 1 744.2238 670.5882)" class="st4 st5 st8">-%</text>
	<rect x="744.1" y="906.3" class="st0" width="35.5" height="35.5"/>
	<text transform="matrix(1 0 0 1 744.2238 932.2399)" class="st4 st5 st8">-%</text>
	<rect x="403.3" y="189.8" class="st0" width="35.5" height="35.5"/>
	<text transform="matrix(1 0 0 1 405.3738 215.7474)" class="st4 st5 st8">-%</text>
	<rect x="403.1" y="319.9" class="st0" width="35.5" height="35.5"/>
	<text transform="matrix(1 0 0 1 403.2488 345.8099)" class="st4 st5 st8">-%</text>
	<rect x="403.4" y="449.6" class="st0" width="35.5" height="35.5"/>
	<text transform="matrix(1 0 0 1 405.4988 475.4798)" class="st4 st5 st8">-%</text>
	<rect x="403.3" y="579.4" class="st0" width="35.5" height="35.5"/>
	<text transform="matrix(1 0 0 1 403.3738 605.2515)" class="st4 st5 st8">-%</text>
	<rect x="403.5" y="709" class="st0" width="35.5" height="35.5"/>
	<text transform="matrix(1 0 0 1 405.6238 734.9214)" class="st4 st5 st8">-%</text>
	<rect x="403.4" y="840.6" class="st0" width="35.5" height="35.5"/>
	<text transform="matrix(1 0 0 1 403.4988 866.5223)" class="st4 st5 st8">-%</text>
	<rect x="403.6" y="970.3" class="st0" width="35.5" height="35.5"/>
	<text transform="matrix(1 0 0 1 405.7488 996.1922)" class="st4 st5 st8">-%</text>
	<text transform="matrix(1 0 0 1 49.2906 114.9866)" class="st4 st5 st8">0%</text>
	<text transform="matrix(1 0 0 1 49.2906 189.3538)" class="st4 st5 st8">0%</text>
	<text transform="matrix(1 0 0 1 49.2906 245.241)" class="st4 st5 st8">0%</text>
	<text transform="matrix(1 0 0 1 49.2906 319.6082)" class="st4 st5 st8">0%</text>
	<text transform="matrix(1 0 0 1 49.2906 375.4954)" class="st4 st5 st8">0%</text>
	<text transform="matrix(1 0 0 1 49.2906 449.8621)" class="st4 st5 st8">0%</text>
	<text transform="matrix(1 0 0 1 49.2906 505.7491)" class="st4 st5 st8">0%</text>
	<text transform="matrix(1 0 0 1 49.2906 580.1163)" class="st4 st5 st8">0%</text>
	<text transform="matrix(1 0 0 1 49.2906 636.0035)" class="st4 st5 st8">0%</text>
	<text transform="matrix(1 0 0 1 49.2906 710.3707)" class="st4 st5 st8">0%</text>
	<text transform="matrix(1 0 0 1 49.2906 766.2576)" class="st4 st5 st8">0%</text>
	<text transform="matrix(1 0 0 1 49.2906 840.6248)" class="st4 st5 st8">0%</text>
	<text transform="matrix(1 0 0 1 49.2906 896.5118)" class="st4 st5 st8">0%</text>
	<text transform="matrix(1 0 0 1 49.2906 970.879)" class="st4 st5 st8">0%</text>
	<text transform="matrix(1 0 0 1 49.2906 1026.7665)" class="st4 st5 st8">0%</text>
	<g>
		<rect x="453.4" y="185.1" class="st4" width="0" height="45"/>
		<rect x="453.4" y="185.1" class="st4" width="0" height="45"/>
	</g>
	<rect x="453.4" y="315.1" class="st4" width="0" height="45"/>
	<rect x="792.9" y="120.1" class="st4" width="0.5" height="45"/>
	<rect x="453.4" y="575.1" class="st4" width="0" height="45"/>
	<g>
		<rect x="453.4" y="445.1" class="st4" width="0" height="45"/>
		<rect x="453.4" y="445.1" class="st4" width="0" height="45"/>
	</g>
	<g>
		<rect x="453.4" y="705.1" class="st4" width="0" height="45"/>
		<rect x="453.4" y="705.1" class="st4" width="0" height="45"/>
	</g>
	<rect x="453.4" y="835.1" class="st4" width="0" height="45"/>
	<g>
		<rect x="453.4" y="966.1" class="st4" width="0" height="45"/>
		<rect x="453.4" y="966.1" class="st4" width="0" height="45"/>
	</g>
	<g>
		<rect x="793" y="380.1" class="st4" width="0.4" height="45"/>
		<rect x="793" y="380.1" class="st4" width="0.4" height="45"/>
	</g>
	<rect x="793" y="642.1" class="st4" width="0.4" height="45"/>
	<g>
		<rect x="793" y="902.1" class="st4" width="0.4" height="45"/>
		<rect x="793" y="902.1" class="st4" width="0.4" height="45"/>
	</g>
	<g>
		<rect x="1132.6" y="772.1" class="st4" width="0.6" height="45"/>
		<rect x="1132.6" y="772.1" class="st4" width="0.6" height="45"/>
	</g>
	<line class="st2" x1="453.4" y1="207.6" x2="443.5" y2="207.6"/>
	<line class="st2" x1="453.4" y1="77.6" x2="443.5" y2="77.6"/>
	<line class="st2" x1="453.4" y1="337.6" x2="443.5" y2="337.6"/>
	<line class="st2" x1="453.4" y1="467.6" x2="443.5" y2="467.6"/>
	<line class="st2" x1="453.4" y1="597.6" x2="443.5" y2="597.6"/>
	<line class="st2" x1="453.4" y1="727.6" x2="443.5" y2="727.6"/>
	<line class="st2" x1="453.4" y1="858.6" x2="443.5" y2="858.6"/>
	<line class="st2" x1="453.4" y1="988.6" x2="443.5" y2="988.6"/>
	<polyline class="st2" points="653.4,207.6 723.4,207.6 723.4,142.6 	"/>
	<polyline class="st2" points="723.4,402.6 723.4,337.6 653.4,337.6 	"/>
	<polyline class="st2" points="653.4,467.6 723.4,467.6 723.4,402.6 	"/>
	<polyline class="st2" points="723.4,662.6 723.4,597.6 653.4,597.6 	"/>
	<polyline class="st2" points="653.4,727.6 723.4,727.6 723.4,662.6 	"/>
	<polyline class="st9" points="723.4,922.6 723.4,857.6 653.4,857.6 	"/>
	<polyline class="st2" points="653.4,987.6 723.4,987.6 723.4,922.6 	"/>
	<rect x="1132.6" y="250.1" class="st4" width="0.6" height="45"/>
	<line class="st10" x1="793.4" y1="142.6" x2="789.1" y2="142.6"/>
	<line class="st10" x1="793.4" y1="402.6" x2="789.1" y2="402.6"/>
	<line class="st2" x1="793.4" y1="662.6" x2="789.1" y2="662.6"/>
	<line class="st2" x1="793.4" y1="922.6" x2="789.1" y2="922.6"/>
	<polyline class="st2" points="1063.4,272.6 1063.4,142.6 993.4,142.6 	"/>
	<polyline class="st2" points="1333.4,794.6 1403.4,794.6 1403.4,533.6 	"/>
	<polyline class="st2" points="994.4,925.1 1064.4,925.1 1064.4,795.1 	"/>
	<polyline class="st2" points="1064.4,795.1 1064.4,665.1 994.4,665.1 	"/>
	<line class="st2" x1="1133.8" y1="272.6" x2="1127.3" y2="272.6"/>
	<line class="st2" x1="1133.8" y1="794.6" x2="1127.3" y2="794.6"/>
	<rect x="461.9" y="69.6" class="st7" width="191.5" height="30.5"/>
	<text transform="matrix(1 0 0 1 461.8999 82.6949)" class="st5 st6">-</text>
	<rect x="801.9" y="134.6" class="st7" width="191.5" height="30.5"/>
	<text transform="matrix(1 0 0 1 801.8999 147.6949)" class="st5 st6">-</text>
	<rect x="801.9" y="394.6" class="st7" width="191.5" height="30.5"/>
	<text transform="matrix(1 0 0 1 801.8999 407.6949)" class="st5 st6">-</text>
	<rect x="1141.9" y="264.6" class="st7" width="191.5" height="30.5"/>
	<text transform="matrix(1 0 0 1 1141.8999 277.6949)" class="st5 st6">-</text>
	<rect x="1141.9" y="786.6" class="st7" width="191.5" height="30.5"/>
	<text transform="matrix(1 0 0 1 1141.8999 799.6949)" class="st5 st6">-</text>
	<rect x="1463" y="511.1" class="st1" width="200" height="45"/>
	<rect x="1471.5" y="525.6" class="st7" width="191.5" height="30.5"/>
	<text transform="matrix(1 0 0 1 1471.4999 538.6949)" class="st5 st6">-</text>
	<rect x="801.9" y="656.6" class="st7" width="191.5" height="30.5"/>
	<text transform="matrix(1 0 0 1 801.8999 669.6949)" class="st5 st6">-</text>
	<rect x="801.9" y="916.6" class="st7" width="191.5" height="30.5"/>
	<text transform="matrix(1 0 0 1 801.8999 929.6949)" class="st5 st6">-</text>
	<rect x="461.9" y="199.6" class="st7" width="191.5" height="30.5"/>
	<text transform="matrix(1 0 0 1 461.8999 212.6949)" class="st5 st6">-</text>
	<rect x="461.9" y="329.8" class="st7" width="191.5" height="30.5"/>
	<text transform="matrix(1 0 0 1 461.8999 342.8949)" class="st5 st6">-</text>
	<rect x="461.9" y="459.8" class="st7" width="191.5" height="30.5"/>
	<text transform="matrix(1 0 0 1 461.8999 472.895)" class="st5 st6">-</text>
	<rect x="461.9" y="589.6" class="st7" width="191.5" height="30.5"/>
	<text transform="matrix(1 0 0 1 461.8999 602.6949)" class="st5 st6">-</text>
	<rect x="461.9" y="719.6" class="st7" width="191.5" height="30.5"/>
	<text transform="matrix(1 0 0 1 461.8999 732.6949)" class="st5 st6">-</text>
	<rect x="461.9" y="849.7" class="st7" width="191.5" height="30.5"/>
	<text transform="matrix(1 0 0 1 461.8999 862.7949)" class="st5 st6">-</text>
	<rect x="461.9" y="979.7" class="st7" width="191.5" height="30.5"/>
	<text transform="matrix(1 0 0 1 461.8999 992.7949)" class="st5 st6">-</text>
</g>
</svg>
